<?xml version="1.0" standalone="no"?>
<!DOCTYPE svg PUBLIC "-//W3C//DTD SVG 20010904//EN"
 "http://www.w3.org/TR/2001/REC-SVG-20010904/DTD/svg10.dtd">
<svg version="1.0" xmlns="http://www.w3.org/2000/svg"
 width="128.000000pt" height="128.000000pt" viewBox="0 0 128.000000 128.000000"
 preserveAspectRatio="xMidYMid meet">
<metadata>
Created by potrace 1.11, written by Peter Selinger 2001-2013
</metadata>
<g transform="translate(0.000000,128.000000) scale(0.100000,-0.100000)"
fill="#000000" stroke="none">
<path d="M518 1213 c-13 -15 -27 -86 -28 -145 0 -10 -16 -24 -37 -35 -21 -9
-50 -25 -64 -36 -26 -18 -27 -18 -90 8 -81 34 -91 36 -109 21 -27 -20 -111
-177 -108 -199 2 -13 28 -40 63 -66 l60 -45 0 -74 0 -74 -63 -49 c-36 -29 -62
-57 -62 -68 0 -25 88 -178 113 -196 17 -12 26 -11 71 6 28 11 61 25 73 31 19
9 29 7 60 -13 21 -14 50 -30 66 -37 17 -7 27 -19 28 -34 2 -62 12 -115 25
-135 14 -22 21 -23 124 -23 104 0 110 1 125 24 14 21 21 60 24 134 1 14 10 26
26 32 13 5 42 21 65 36 l40 27 62 -28 c84 -36 93 -37 115 -12 30 34 103 166
103 188 0 17 -82 91 -112 101 -8 3 -12 31 -13 84 l-1 79 60 45 c34 25 62 54
64 66 4 31 -97 202 -122 206 -12 2 -51 -10 -88 -26 l-68 -29 -40 27 c-23 15
-52 31 -65 36 -16 6 -25 18 -26 32 -1 56 -12 115 -25 136 -14 21 -21 22 -123
22 -90 0 -110 -3 -123 -17z m209 -418 c125 -69 121 -248 -7 -313 -56 -28 -104
-28 -160 1 -132 66 -132 248 0 315 55 28 115 27 167 -3z"/>
</g>
</svg>
